<svg width="330" height="59" viewBox="0 0 330 59" fill="none" xmlns="http://www.w3.org/2000/svg">
<g clip-path="url(#clip0_15229_32755)">
<mask id="mask0_15229_32755" style="mask-type:luminance" maskUnits="userSpaceOnUse" x="0" y="0" width="330" height="59">
<path d="M330 0H0V59H330V0Z" fill="white"/>
</mask>
<g mask="url(#mask0_15229_32755)">
<path d="M84.0251 9.80042H76.1191V48.9286H84.0251V9.80042Z" fill="white"/>
<path d="M111.993 20.512C110.412 19.6009 108.658 19.2069 106.533 19.2069C104.285 19.2069 102.481 19.6994 100.974 20.6844C99.4667 21.6693 98.4044 23.0237 97.7126 24.6735H97.3914V19.5763H89.8066V48.9285H97.5397V31.8885C97.5397 30.5587 97.8114 29.3768 98.3055 28.4657C98.7997 27.5546 99.5409 26.7912 100.406 26.2987C101.271 25.8062 102.333 25.5354 103.519 25.5354C105.273 25.5354 106.632 26.0525 107.571 27.1113C108.51 28.1209 109.078 29.623 109.078 31.5191V48.9039H116.811V30.214C116.811 27.8747 116.391 25.9294 115.526 24.2549C114.662 22.5804 113.451 21.3492 111.919 20.4381L111.969 20.4874L111.993 20.512Z" fill="white"/>
<path d="M138.972 31.9625L133.66 30.9529C132.227 30.6328 131.214 30.2141 130.621 29.697C130.028 29.1799 129.707 28.5397 129.707 27.7763C129.707 26.8652 130.152 26.1019 131.066 25.5355C131.98 24.9445 133.141 24.6983 134.5 24.6983C136.007 24.6983 137.193 25.043 138.107 25.7818C139.021 26.5205 139.54 27.3085 139.763 28.2688L146.804 27.7517C146.384 25.1661 145.149 23.0731 143.049 21.571C140.949 20.0443 138.083 19.3055 134.401 19.3055C131.955 19.3055 129.732 19.6503 127.854 20.4136C125.977 21.177 124.519 22.1866 123.506 23.5656C122.493 24.8953 121.925 26.5205 121.925 28.3427C121.925 30.5096 122.617 32.2826 124.025 33.6862C125.458 35.0898 127.582 36.0501 130.473 36.6903L135.587 37.6999C138.181 38.2171 139.516 39.2759 139.516 40.8519C139.516 41.763 139.071 42.5263 138.083 43.1173C137.144 43.7575 135.884 44.053 134.327 44.053C132.771 44.053 131.535 43.7329 130.547 43.0681C129.534 42.4032 128.941 41.4675 128.62 40.2363L121.06 40.7534C121.48 43.4867 122.839 45.6782 125.112 47.2542C127.385 48.8302 130.473 49.6181 134.327 49.6181C136.897 49.6181 139.12 49.1995 141.097 48.4116C143.049 47.5989 144.63 46.4908 145.717 45.0626C146.804 43.6344 147.397 41.96 147.397 40.0393C147.397 37.9462 146.705 36.2225 145.297 34.942C143.864 33.6369 141.714 32.7012 138.898 32.1102V32.0117L138.972 31.9625Z" fill="white"/>
<path d="M165.481 42.9695C165.136 43.0187 164.74 43.068 164.419 43.068C163.357 43.068 162.64 42.7971 162.146 42.3046C161.652 41.8121 161.405 41.0488 161.405 39.9653V25.3631H167.211V19.5763H161.405V12.583H153.672V19.5763H149.497V25.3631H153.672V41.0488C153.672 43.6343 154.512 45.6535 156.093 47.1556C157.699 48.6331 159.947 49.3472 162.863 49.3472C163.703 49.3472 164.469 49.2979 165.284 49.1748C166.124 49.0271 166.939 48.8547 167.73 48.6577L166.445 42.871C166.124 42.9695 165.803 43.0187 165.383 43.0434L165.432 42.9941L165.481 42.9695Z" fill="white"/>
<path d="M192.609 21.4479C191.423 20.6353 190.089 20.1182 188.582 19.7488C187.075 19.4041 185.617 19.2317 184.061 19.2317C181.788 19.2317 179.762 19.5518 177.983 20.2167C176.204 20.8815 174.722 21.8172 173.61 23.0731C172.449 24.3289 171.658 25.8556 171.189 27.6532L178.378 28.4166C178.699 27.4316 179.317 26.5698 180.256 25.9049C181.17 25.24 182.455 24.8953 184.036 24.8953C185.617 24.8953 186.729 25.24 187.495 25.9788C188.261 26.7175 188.73 27.7271 188.73 29.0076V29.1553C188.73 29.7955 188.483 30.2634 187.989 30.5835C187.495 30.9036 186.704 31.1006 185.642 31.3223C184.58 31.4946 183.196 31.6424 181.368 31.8147C179.91 31.9625 178.502 32.1595 177.168 32.5535C175.834 32.8982 174.598 33.3907 173.561 34.0802C172.498 34.745 171.634 35.6561 171.041 36.7396C170.448 37.8231 170.126 39.2267 170.126 40.8273C170.126 42.748 170.546 44.3486 171.411 45.6783C172.276 46.9834 173.486 47.9437 174.969 48.6332C176.476 49.2981 178.156 49.6182 180.083 49.6182C181.664 49.6182 182.949 49.3965 184.11 48.9779C185.271 48.5593 186.21 47.993 186.976 47.3035C187.742 46.6386 188.409 45.826 188.854 44.9395H189.101V49.0272H196.513V29.3031C196.513 27.4562 196.167 25.8803 195.45 24.6244C194.758 23.3686 193.795 22.359 192.609 21.5218H192.56L192.658 21.4725L192.609 21.4479ZM188.755 38.3895C188.755 39.3991 188.483 40.4087 187.915 41.2459C187.347 42.0831 186.581 42.7726 185.642 43.3143C184.703 43.8314 183.542 44.0777 182.208 44.0777C180.874 44.0777 179.688 43.7576 178.823 43.142C177.958 42.5017 177.489 41.6152 177.489 40.4579C177.489 39.6453 177.736 38.9804 178.131 38.4387C178.551 37.9216 179.194 37.503 179.959 37.1829C180.725 36.8627 181.64 36.6657 182.652 36.518C183.097 36.4195 183.591 36.3703 184.234 36.2964C184.827 36.1979 185.42 36.124 186.013 36.0255C186.605 35.927 187.174 35.8039 187.618 35.6069C188.063 35.4345 188.483 35.2868 188.705 35.1637V38.4387L188.755 38.3895Z" fill="white"/>
<path d="M227.544 35.2375H227.222L209.286 9.77588H202.294V48.904H210.2V23.4178H210.521L228.557 48.904H235.45V9.8005H227.544V35.2621V35.2375Z" fill="white"/>
<path d="M262.355 21.103C260.156 19.8471 257.586 19.2069 254.622 19.2069C251.657 19.2069 249.063 19.8471 246.889 21.103C244.715 22.3588 243.035 24.1318 241.849 26.3726C240.663 28.6134 240.07 31.2975 240.07 34.3263C240.07 37.3551 240.663 39.9899 241.849 42.2553C243.035 44.5208 244.69 46.2691 246.889 47.5249C249.088 48.7808 251.657 49.421 254.622 49.421C257.586 49.421 260.181 48.7808 262.355 47.5249C264.529 46.2691 266.209 44.4961 267.395 42.2553C268.581 40.0145 269.174 37.3797 269.174 34.3263C269.174 31.2729 268.581 28.638 267.395 26.3726C266.209 24.1072 264.554 22.3588 262.355 21.103ZM260.527 39.0295C260.032 40.4331 259.291 41.5166 258.278 42.3046C257.265 43.1172 256.079 43.5112 254.572 43.5112C253.065 43.5112 251.83 43.0926 250.866 42.3046C249.928 41.492 249.112 40.4085 248.618 39.0295C248.124 37.6259 247.877 36.0746 247.877 34.3509C247.877 32.6272 248.124 31.0266 248.618 29.6476C249.112 28.2441 249.853 27.1606 250.866 26.3726C251.879 25.56 253.115 25.166 254.572 25.166C256.03 25.166 257.265 25.5846 258.278 26.3726C259.291 27.1852 260.032 28.2687 260.527 29.6476C261.021 31.0512 261.268 32.6026 261.268 34.3509C261.268 36.0992 261.021 37.6259 260.527 39.0295Z" fill="white"/>
<path d="M285.283 40.9011H284.961L278.389 19.5271H270.188L280.662 48.9286H289.408L299.934 19.5271H291.78L285.307 40.9011H285.283Z" fill="white"/>
<path d="M323.181 21.103C320.983 19.8471 318.413 19.2069 315.448 19.2069C312.484 19.2069 309.89 19.8471 307.715 21.103C305.541 22.3588 303.861 24.1318 302.675 26.3726C301.489 28.6134 300.896 31.2975 300.896 34.3263C300.896 37.3551 301.489 39.9899 302.675 42.2553C303.861 44.5208 305.517 46.2691 307.715 47.5249C309.914 48.7808 312.484 49.421 315.448 49.421C318.413 49.421 321.007 48.7808 323.181 47.5249C325.356 46.2691 327.036 44.4961 328.221 42.2553C329.407 40.0145 330 37.3797 330 34.3263C330 31.2729 329.407 28.638 328.221 26.3726C327.036 24.1072 325.38 22.3588 323.181 21.103ZM321.404 39.0295C320.909 40.4331 320.167 41.5166 319.154 42.3046C318.141 43.1172 316.955 43.5112 315.448 43.5112C313.941 43.5112 312.681 43.0926 311.742 42.3046C310.804 41.492 309.988 40.4085 309.494 39.0295C309 37.6259 308.753 36.0746 308.753 34.3509C308.753 32.6272 309 31.0266 309.494 29.6476C309.988 28.2441 310.73 27.1606 311.742 26.3726C312.755 25.56 313.991 25.166 315.448 25.166C316.906 25.166 318.141 25.5846 319.154 26.3726C320.167 27.1852 320.909 28.2687 321.404 29.6476C321.898 31.0512 322.145 32.6026 322.145 34.3509C322.145 36.0992 321.898 37.6259 321.404 39.0295Z" fill="white"/>
<path d="M58.8251 50.6031C55.1192 45.0872 55.7122 37.9215 59.0475 32.1594C59.5169 31.3468 59.764 30.4603 59.764 29.5C59.764 28.4904 59.4922 27.53 58.9487 26.6682C55.4157 21.0292 55.4157 13.8635 58.9487 8.22454C59.4922 7.36269 59.764 6.42696 59.764 5.39274C59.764 2.41319 57.3428 0 54.3533 0C51.3639 0 48.9427 2.41319 48.9427 5.39274C48.9427 6.40234 49.2144 7.36269 49.758 8.22454C53.291 13.8635 53.291 21.0292 49.758 26.6682C49.2144 27.53 48.9427 28.4658 48.9427 29.5C48.9427 30.5835 49.2392 31.5931 49.8568 32.4795C53.5874 38.02 52.9698 45.1611 49.6344 50.9232C49.165 51.7358 48.918 52.6223 48.918 53.5826C48.918 56.5622 51.3392 58.9754 54.3286 58.9754C57.3181 58.9754 59.7393 56.5622 59.7393 53.5826C59.7393 52.4992 59.4428 51.4896 58.8251 50.6031Z" fill="#1AB999"/>
<path d="M10.0303 32.3072C10.5244 31.5192 10.7962 30.6327 10.8209 29.6724C10.9197 26.6928 8.57262 24.2058 5.58318 24.1073C2.59374 24.0088 0.0984156 26.3235 -0.000408998 29.303C-0.0251151 30.3865 0.246653 31.3961 0.814894 32.3072C4.34787 37.9462 4.37258 45.1119 0.814894 50.7755C0.320771 51.5635 0.0490033 52.4499 0.0242972 53.4103C-0.0745274 56.3898 2.27256 58.9015 5.262 59C8.25144 59.0985 10.7715 56.7592 10.8703 53.7796C10.895 52.6962 10.6232 51.6866 10.055 50.7755C6.52201 45.1365 6.49731 37.9708 10.055 32.3072H10.0303Z" fill="#1AB999"/>
<path d="M5.41065 10.7361C8.40009 10.7115 10.8213 8.3229 10.8213 5.36797C10.8213 2.41305 8.40009 0.0737305 5.41065 0.0737305C2.4212 0.0737305 0 2.46229 0 5.3926C0 8.3229 2.4212 10.7361 5.41065 10.7361Z" fill="#1AB999"/>
<path d="M44.8407 5.39265C44.8407 2.09299 41.8512 -0.517197 38.4418 0.0737881C35.8476 0.541651 33.8959 3.00409 34.0194 5.61427C34.0688 6.55 34.3159 7.41185 34.81 8.19983C36.5394 10.9578 37.4041 14.0851 37.4288 17.2124C37.4288 19.3054 34.8841 20.2904 33.377 18.8129C29.4735 14.9715 26.7558 10.022 25.644 4.5308C25.1993 2.26536 22.9016 -0.147831 19.6651 0.246159C17.1204 0.541651 15.0451 2.75785 14.9215 5.31878C14.7733 8.05209 16.6016 9.84966 18.158 10.5638C26.4099 14.2821 32.3394 21.7186 34.0935 30.5588C34.1429 30.8543 34.2417 31.1497 34.3653 31.4452C34.4394 31.6176 34.5135 31.79 34.6123 31.9624C34.6617 32.0362 34.6865 32.1347 34.7359 32.2086C34.8594 32.4302 35.0076 32.6272 35.1559 32.8242C35.1559 32.8242 35.1806 32.8735 35.2053 32.8735C35.3782 33.0951 35.5759 33.2921 35.7982 33.4891C35.7982 33.4891 35.8229 33.4891 35.8476 33.5137C36.07 33.7107 36.2924 33.8831 36.5394 34.0308C36.6135 34.08 36.6629 34.1047 36.7371 34.1293C36.9347 34.2524 37.1571 34.3755 37.3794 34.4494C37.5524 34.5233 37.75 34.5725 37.9477 34.6218C38.0712 34.6464 38.1947 34.7203 38.343 34.7449C39.01 34.868 39.7265 34.8927 40.5171 34.7449C42.2465 34.4002 43.6795 33.1197 44.3713 31.4945C44.9642 30.1155 44.8901 29.0567 44.643 28.1209C44.643 28.0471 44.5936 27.9486 44.5689 27.8747C44.4454 27.4561 44.2724 27.0621 44.0501 26.7174C44.0501 26.6927 44.0501 26.6435 44.0007 26.6189C40.4677 20.9799 40.4677 13.8142 44.0007 8.15058C44.5442 7.28873 44.7913 6.353 44.7913 5.3434L44.8407 5.39265Z" fill="#1AB999"/>
<path d="M41.6044 48.4114C33.3526 44.6931 27.4231 37.2565 25.669 28.4164C25.6195 28.1209 25.5207 27.8254 25.3972 27.5299C25.3231 27.3575 25.249 27.1852 25.1501 27.0374C25.1007 26.9635 25.076 26.865 25.0266 26.7912C24.9031 26.5696 24.7548 26.3726 24.6066 26.1756C24.6066 26.1756 24.5819 26.1263 24.5572 26.1263C24.3842 25.9047 24.1866 25.7077 23.9642 25.5107C23.9642 25.5107 23.9395 25.5107 23.9148 25.4861C23.6925 25.2891 23.4701 25.1167 23.2231 24.969C23.1489 24.9197 23.0748 24.8951 23.0254 24.8705C22.8278 24.7473 22.6054 24.6242 22.383 24.5504C22.2101 24.4765 22.0125 24.4272 21.8148 24.378C21.6913 24.3534 21.5677 24.2795 21.4195 24.2549C20.7524 24.1317 20.036 24.1071 19.2454 24.2549C17.5159 24.5996 16.083 25.8801 15.3912 27.4807C14.7736 28.8596 14.8724 29.9185 15.1194 30.8542C15.1194 30.9281 15.1688 31.0266 15.1936 31.1004C15.3171 31.519 15.49 31.8884 15.7124 32.2332C15.7124 32.2578 15.7371 32.307 15.7618 32.3317C19.2948 37.9706 19.2948 45.1363 15.7618 50.7753C15.2677 51.5633 14.9959 52.4251 14.9712 53.3609C14.8724 55.9957 16.7995 58.4581 19.3936 58.926C22.8278 59.5416 25.7925 56.9068 25.7925 53.6071C25.7925 52.5975 25.5207 51.6372 24.9772 50.7753C23.2478 48.0174 22.383 44.8901 22.3583 41.7628C22.3583 39.6697 24.9031 38.6847 26.4101 40.1622C30.289 44.0036 33.0314 48.9531 34.1432 54.4443C34.5879 56.7098 36.8856 59.123 40.1221 58.729C42.6668 58.4335 44.7421 56.2173 44.8656 53.6564C45.0139 50.9231 43.1856 49.1255 41.6291 48.436L41.6044 48.4114Z" fill="#1AB999"/>
</g>
</g>
<defs>
<clipPath id="clip0_15229_32755">
<rect width="330" height="59" fill="white"/>
</clipPath>
</defs>
</svg>
