<svg width="25" height="24" viewBox="0 0 25 24" fill="none" xmlns="http://www.w3.org/2000/svg">
<path d="M24.1396 12.0947C24.4393 9.9743 21.5986 8.49355 22.6294 5.44913C23.1807 3.83808 25.0266 2.60609 23.5403 0.769962C22.7133 -0.260641 21.0113 -0.130334 20.1962 0.900268C18.9257 2.49948 20.7356 4.13423 21.3109 5.65051C22.1619 7.88941 20.424 9.58339 19.9445 11.1708C19.8486 11.3603 19.7767 11.5735 19.7527 11.8104C19.4531 13.9309 22.2938 15.4116 21.263 18.456C20.7116 20.0671 18.8658 21.2991 20.352 23.1352C21.1791 24.1658 22.8811 24.0355 23.6961 23.0049C24.9667 21.4057 23.1568 19.7709 22.5814 18.2547C21.7304 16.0158 23.4684 14.3218 23.9478 12.7344C24.0437 12.5449 24.1156 12.3317 24.1396 12.0947Z" fill="#1AB999"/>
<path d="M2.88859 15.3525C3.43994 13.7414 5.28579 12.5094 3.79952 10.6733C2.97249 9.64268 1.27048 9.77299 0.455428 10.8036C-0.815088 12.4028 0.994798 14.0375 1.57013 15.5538C2.68482 18.4916 -0.65927 20.4936 0.23968 22.543C1.06671 24.4383 4.09917 24.154 4.41081 21.9862C4.71046 19.8658 1.86978 18.385 2.90057 15.3406L2.88859 15.3525Z" fill="#1AB999"/>
<path d="M12.4413 16.3001C11.1349 14.6772 10.8352 13.0779 10.4157 11.8815C10.3678 11.5024 9.58867 9.99798 8.24623 9.96245C7.09558 9.93875 5.99286 10.9457 6.07677 12.1066C6.07677 12.1421 6.07677 12.1776 6.07677 12.2132C6.19663 13.3504 7.21544 14.4876 7.62296 15.5538C8.73766 18.4916 5.39356 20.4935 6.29251 22.5429C7.11955 24.4383 10.152 24.154 10.4636 21.9861C10.7633 19.8657 8.47397 18.8706 8.97738 15.5182C9.15717 14.3218 10.2239 14.7127 11.6622 16.8687C13.4122 19.4866 12.9447 22.4007 14.8985 23.5143C16.7084 24.5449 18.9737 22.5192 17.9069 20.612C16.8642 18.7403 14.5389 18.8825 12.4533 16.2882L12.4413 16.3001Z" fill="#1AB999"/>
<path d="M11.7824 7.56962C13.0889 9.19252 13.3885 10.7917 13.808 11.9882C13.856 12.3673 14.635 13.8717 15.9775 13.9072C17.1281 13.9309 18.2309 12.924 18.1469 11.7631C18.1469 11.7276 18.1469 11.692 18.1469 11.6565C18.0271 10.5193 17.0083 9.38206 16.6008 8.31592C15.4861 5.37811 18.8302 3.37614 17.9312 1.32678C17.1042 -0.568583 14.0717 -0.284279 13.7601 1.88354C13.4604 4.00397 15.7497 4.99904 15.2463 8.35146C15.0665 9.5479 13.9998 9.15699 12.5615 7.00101C10.8115 4.38305 11.279 1.46893 9.32525 0.355405C7.51537 -0.675197 5.25001 1.35047 6.31676 3.25768C7.35955 5.12934 9.68483 4.98719 11.7704 7.58147L11.7824 7.56962Z" fill="#1AB999"/>
<path d="M2.19344 4.32379C3.40402 4.32379 4.38688 3.35242 4.38688 2.15597C4.38688 0.959526 3.40402 0 2.19344 0C0.982852 0 0 0.971372 0 2.16782C0 3.36426 0.982852 4.33564 2.19344 4.33564V4.32379Z" fill="#1AB999"/>
</svg>
